<svg width="16" height="16" viewBox="0 0 16 16" fill="none" xmlns="http://www.w3.org/2000/svg">
<g clip-path="url(#clip0)" fill="WindowText"><path d="M.85.15a.5.5 0 10-.7.7l3.5 3.5A8.1 8.1 0 00.28 9.4a.5.5 0 00.98.2 7.09 7.09 0 013.1-4.53l1.6 1.59a3.5 3.5 0 104.88 4.89l4.3 4.3a.5.5 0 00.71-.7l-15-15zm9.27 10.68a2.5 2.5 0 11-3.45-3.45l3.45 3.45z"/><path d="M8.12 6l3.38 3.38A3.5 3.5 0 008.12 6z"/><path d="M8 4c-.57 0-1.13.07-1.67.21l-.8-.8A7.65 7.65 0 018 3c3.7 0 6.94 2.67 7.72 6.4a.5.5 0 01-.98.2A6.97 6.97 0 008 4z"/></g><defs><clipPath id="clip0"><path fill="#ffffff" d="M0 0h16v16H0z"/></clipPath></defs>
</svg>